# xmcd
#
# Track frame offsets: 
#        150
#        17413
#        33458
#        47938
#        65117
#        80788
#        97159
#        112445
#        128656
#        143464
#
# Disc length: 2115 seconds
#
# Revision: 0
# Processed by: cddbd v1.5.2PL0 Copyright (c) Steve Scherf et al.
# Submitted via: ExactAudioCopy v1.0b3
#
DISCID=9108410a
DTITLE=Naree-Krajang - ดอกไม้ในซอกกำแพง
DYEAR=1900
DGENRE=pop
TTITLE0=ดอกไม้ในซอกกำแพง
TTITLE1=ขวดน้ำ
TTITLE2=เหงาๆ
TTITLE3=ครอบครัวใหญ่
TTITLE4=กลางใจเธอ
TTITLE5=เพื่อความปลอดภัย
TTITLE6=อย่าอิจฉา
TTITLE7=ดึกแล้ว
TTITLE8=อยู่คนเดียว
TTITLE9=สุดสาย
EXTD=
EXTT0=
EXTT1=
EXTT2=
EXTT3=
EXTT4=
EXTT5=
EXTT6=
EXTT7=
EXTT8=
EXTT9=
PLAYORDER=
